<svg width="1236" height="1092" viewBox="0 0 1236 1092" fill="none" xmlns="http://www.w3.org/2000/svg">
<path d="M446.788 616.357C446.738 614.965 448.732 615.008 450.066 614.586C450.125 615.978 448.126 615.939 446.788 616.357ZM443.378 624.141C443.327 622.745 445.322 622.788 446.651 622.365C446.706 623.761 444.708 623.718 443.378 624.141ZM443.374 644.479C443.323 643.083 445.322 643.13 446.651 642.708C446.702 644.096 444.708 644.061 443.374 644.479ZM440.98 658.067C443.675 654.739 435.497 653.753 438.391 650.147C439.744 650.135 439.24 651.195 438.594 651.305C441.227 651.907 441.481 655.896 445.216 654.926C444.723 656.616 443.12 657.52 440.98 658.067ZM441.199 598.205C441.25 599.598 439.251 599.555 437.918 599.977C437.867 598.585 439.862 598.624 441.199 598.205ZM444.946 605.918C445.083 606.689 445.22 607.463 445.357 608.238C444.586 608.375 443.808 608.511 443.041 608.644C442.901 607.874 442.768 607.099 442.631 606.325C443.401 606.188 444.18 606.051 444.946 605.918ZM430.541 619.22C430.49 617.828 432.485 617.871 433.819 617.453C433.873 618.845 431.879 618.802 430.541 619.22ZM427.475 622.158C429.935 621.067 429.516 624.082 431.362 623.867C431.401 626.836 426.872 624.728 427.475 622.158ZM418.396 604.616C426.059 606.024 421.209 600.626 418.396 604.616ZM411.634 627.348C411.583 625.952 413.578 625.995 414.912 625.568C414.962 626.961 412.972 626.922 411.634 627.348ZM407.062 635.331C407.011 633.939 409.005 633.978 410.339 633.555C410.394 634.948 408.395 634.905 407.062 635.331ZM403.107 626.456C403.189 624.817 405.841 624.986 407.543 624.477C407.461 626.116 404.809 625.952 403.107 626.456ZM402.079 661.333C402.024 659.941 404.015 659.98 405.356 659.557C405.403 660.954 403.412 660.915 402.079 661.333ZM430.275 610.897C433.67 607.405 428.155 615.286 430.275 610.897ZM397.643 642.978C394.143 641.652 392.739 643.001 397.643 642.978ZM390.482 561.678C396.931 563.806 394.096 556.867 390.482 561.678ZM391.362 654.848C389.954 654.672 388.061 653.323 389.789 652.732C389.762 649.873 384.615 654.312 385.694 649.861C389.097 648.395 389.457 651.265 392.86 649.795C394.964 653.299 389.261 651.348 391.362 654.848ZM380.512 634.029C372.251 630.282 391.182 626.245 384.541 629.73C381.599 630.047 381.224 632.155 380.512 634.029ZM384.263 641.745C381.146 645.954 375.337 641.882 384.263 641.745ZM378.807 617.578C376.045 622.486 374.277 614.742 378.807 617.578ZM376.276 637.169C375.459 636.622 370.292 635.425 370.476 638.194C366.76 637.865 377.442 629.816 376.276 637.169ZM365.43 596.007C365.184 592.968 367.706 597.247 370.069 595.186C370.409 598.104 366.201 596.222 365.43 596.007ZM366.654 623.308C366.686 621.802 368.755 621.731 368.978 622.897C368.759 624.681 367.933 622.964 366.654 623.308ZM362.966 643.103C364.159 643.826 365.809 643.893 367.812 643.447C368.547 645.426 361.675 646.662 362.966 643.103ZM365.563 630.68C368.629 632.132 365.121 630.653 363.24 631.091C358.859 631.514 366.146 627.602 365.563 630.68ZM362.164 536.759C365.559 533.266 360.044 541.148 362.164 536.759ZM360.103 606.521C363.506 603.028 357.987 610.905 360.103 606.521ZM354.385 513.002C354.107 510.436 356.872 509.998 359.778 509.658C359.098 511.563 356.34 511.997 354.385 513.002ZM350.614 647.679C351.913 644.878 353.595 648.007 356.211 645.492C355.511 647.691 352.675 649.212 350.614 647.679ZM353.415 575.391C353.203 577.17 352.378 575.453 351.099 575.801C351.13 574.292 353.2 574.225 353.415 575.391ZM352.194 548.09C356.72 550.386 346.722 551.943 352.194 548.09ZM344.125 638.049C343.23 633.516 347.751 635.401 348.569 636.074C349.433 636.782 346.237 636.743 344.125 638.049ZM344.262 672.727C342.663 672.586 342.076 671.006 340.367 671.017C340.449 669.379 343.108 669.543 344.806 669.042C344.356 670.083 343.93 671.139 344.262 672.727ZM345.158 603.173C343.492 605.508 342.084 603.525 338.399 605.558C338.99 603.161 342.936 601.526 345.158 603.173ZM335.489 419.421C334.418 416.253 340.328 421.564 339.929 417.442C341.743 417.645 339.729 419.01 340.543 420.923C337.519 422.331 337.797 419.03 335.489 419.421ZM336.51 445.564C335.478 446.737 334.238 444.907 333.987 444.817C329.059 443.014 337.202 444.774 336.51 445.564ZM335.481 480.441C334.707 480.578 333.933 480.715 333.162 480.848C332.955 479.694 332.751 478.532 332.548 477.37C334.367 476.713 334.738 478.117 336.228 477.918C336.178 478.9 335.274 479.283 335.481 480.441ZM333.909 519.01C333.772 518.235 333.635 517.457 333.498 516.687C334.265 516.55 335.039 516.413 335.814 516.276C335.951 517.05 336.088 517.829 336.225 518.599C335.45 518.736 334.676 518.873 333.909 519.01ZM335.599 616.823C334.457 618.243 333.017 618.223 334.441 617.03C335.724 615.947 336.772 615.368 335.599 616.823ZM322.418 677.772C319.786 677.713 323.712 672.261 325.488 674.839C325.519 676.556 322.097 675.852 322.418 677.772ZM312.792 684.257C310.653 688.559 306.679 682.008 312.792 684.257ZM305.975 638.796C307.786 638.139 308.161 639.543 309.659 639.344C310.52 641.511 304.672 641.968 305.975 638.796ZM301.395 687.464C301.313 685.376 302.924 684.464 305.627 684.324C305.138 686.017 303.526 686.925 301.395 687.464ZM295.942 642.958C295.884 641.562 297.878 641.609 299.22 641.186C299.271 642.579 297.272 642.536 295.942 642.958ZM299.142 654.359C297.221 658.353 291.48 654.328 299.142 654.359ZM290.549 625.963C290.764 624.184 291.585 625.897 292.872 625.553C292.837 627.063 290.768 627.133 290.549 625.963ZM329.263 540.17C331.316 539.657 331.957 541.155 334.109 540.51C334.836 542.489 327.972 543.729 329.263 540.17ZM332.063 528.905C332.118 530.302 330.119 530.259 328.785 530.677C328.731 529.285 330.729 529.328 332.063 528.905ZM327.006 568.085C330.401 564.592 324.886 572.473 327.006 568.085ZM331.183 456.077C331.265 458.166 329.654 459.074 326.955 459.214C327.44 457.521 329.051 456.613 331.183 456.077ZM328.598 407.476C328.68 409.569 327.068 410.472 324.362 410.613C324.855 408.923 326.466 408.02 328.598 407.476ZM324.041 313.758C323.004 314.935 321.765 313.097 321.514 313.003C316.586 311.208 324.729 312.972 324.041 313.758ZM319.132 265.567C320.411 264.488 321.463 263.905 320.294 265.364C319.148 266.788 317.709 266.768 319.132 265.567ZM326.094 264.343C325.605 266.033 323.994 266.94 321.858 267.48C321.78 265.387 323.388 264.48 326.094 264.343ZM323.904 279.085C330.534 280.375 326.9 274.348 323.904 279.085ZM329.908 299.564C329.008 300.46 328.081 301.332 327.589 299.971C327.62 298.457 329.689 298.391 329.908 299.564ZM328.402 324.952C326.478 328.946 320.736 324.925 328.402 324.952ZM335.2 512.799C335.255 514.191 333.264 514.148 331.926 514.571C331.875 513.178 333.87 513.221 335.2 512.799ZM336.111 382.221C333.326 384.791 330.937 383.598 326.83 383.86C329.615 381.286 332 382.479 336.111 382.221ZM343.214 334.304C343.269 335.7 341.27 335.657 339.936 336.08C339.886 334.687 341.884 334.73 343.214 334.304ZM344.352 517.168C344.38 518.885 340.957 518.185 341.278 520.101C338.282 520.121 341.806 516.589 344.352 517.168ZM343.12 550.887C342.897 552.662 342.076 550.945 340.793 551.297C340.824 549.784 342.893 549.717 343.12 550.887ZM340.867 538.12C338.243 535.926 343.773 536.192 344.755 539.83C343.695 539.047 341.861 538.957 340.867 538.12ZM348.17 511.704C345.056 515.92 339.248 511.848 348.17 511.704ZM347.043 328.84C347.344 328.703 347.931 328.84 348.197 328.637C349.808 327.444 349.19 329.219 348.404 329.802C346.984 330.858 345.666 329.481 347.043 328.84ZM347.954 632.593C348.005 633.985 346.007 633.942 344.677 634.365C344.622 632.969 346.617 633.012 347.954 632.593ZM345.909 620.984C345.936 619.475 348.005 619.412 348.228 620.574C347.321 621.473 346.398 622.346 345.909 620.984ZM348.044 456.692C348.533 455.002 350.141 454.094 352.276 453.551C352.355 455.643 350.747 456.551 348.044 456.692ZM354.451 540.51C353.54 541.406 352.621 542.282 352.128 540.917C352.159 539.411 354.228 539.348 354.451 540.51ZM358.898 457.173C357.866 458.346 356.622 456.508 356.372 456.418C351.443 454.619 359.591 456.386 358.898 457.173ZM359.724 421.13C357.803 425.128 352.054 421.103 359.724 421.13ZM362.594 376.358C361.84 377.398 358.683 377.907 356.794 377.379C356.61 374.61 361.773 375.81 362.594 376.358ZM367.3 403.045C367.272 404.554 365.199 404.621 364.976 403.451C365.195 401.672 366.017 403.389 367.3 403.045ZM370.968 525.636C370.198 525.772 369.423 525.909 368.649 526.046C368.512 525.268 368.379 524.497 368.238 523.719C369.013 523.586 369.787 523.449 370.558 523.312C370.695 524.087 370.832 524.861 370.968 525.636ZM371.786 509.936C371.704 511.571 369.052 511.406 367.354 511.919C367.433 510.276 370.088 510.44 371.786 509.936ZM372.208 471.574C371.657 472.892 369.748 473.244 370.499 475.47C367.523 475.501 369.635 470.983 372.208 471.574ZM371.723 502.766C368.88 503.423 369.498 501.699 371.516 501.609C373.151 502.692 372.49 504.472 371.723 502.766ZM373.417 580.245C376.816 576.756 371.301 584.633 373.417 580.245ZM372.005 450.074C372.779 449.937 373.554 449.8 374.324 449.663C374.528 450.829 374.731 451.986 374.934 453.144C373.894 452.698 372.842 452.268 371.25 452.596C371.309 451.623 372.216 451.235 372.005 450.074ZM372.341 445.228C375.74 441.735 370.229 449.616 372.341 445.228ZM380.172 598.193C380.222 599.586 378.236 599.543 376.894 599.969C376.847 598.577 378.838 598.616 380.172 598.193ZM384.087 437.174C382.753 438.692 380.676 436.674 380.402 436.631C372.431 435.289 384.63 436.556 384.087 437.174ZM385.174 490.825C383.836 492.343 381.76 490.325 381.486 490.282C373.519 488.936 385.718 490.207 385.174 490.825ZM387.892 533.419C387.865 534.929 385.792 534.995 385.573 533.826C385.796 532.05 386.617 533.767 387.892 533.419ZM391.162 633.348C389.997 633.551 388.839 633.755 387.681 633.958C387.544 633.188 387.407 632.413 387.271 631.643C389.527 630.833 390.943 631.24 391.162 633.348ZM387.959 581.265C386.172 577.98 390.181 578.758 392.191 578.129C391.706 579.818 390.091 580.726 387.959 581.265ZM385.565 594.845C385.616 596.242 383.621 596.199 382.288 596.625C382.237 595.233 384.232 595.272 385.565 594.845ZM383.59 570.071C382.953 567.592 387.615 568.824 389.191 567.889C389.825 570.373 385.166 569.144 383.59 570.071ZM389.332 521.2C389.383 522.596 387.388 522.55 386.054 522.976C386.003 521.583 387.998 521.623 389.332 521.2ZM309.565 340.237C309.511 338.849 311.505 338.888 312.839 338.466C312.89 339.854 310.899 339.815 309.565 340.237ZM310.383 365.219C310.41 363.713 312.479 363.646 312.698 364.808C312.483 366.592 311.662 364.875 310.383 365.219ZM305.728 447.402C309.53 444.872 307.125 451.224 309.82 450.269C309.123 453.891 305.787 449.46 305.728 447.402ZM304.297 398.598C303.964 395.68 308.173 397.565 308.943 397.78C308.791 401.394 306.264 397.111 304.297 398.598ZM304.105 316.074C301.798 320.853 297.483 317.83 304.105 316.074ZM300.147 327.541C297.792 327.123 301.082 325.515 301.305 327.338C302.33 327.381 302.322 326.693 302.259 325.973C305.138 326.137 301.586 329.693 300.147 327.541ZM291.554 278.803C291.585 277.297 293.654 277.231 293.869 278.396C293.658 280.172 292.833 278.459 291.554 278.803ZM291.816 348.154C290.502 347.61 290.142 345.698 287.924 346.449C288.006 344.806 290.658 344.978 292.36 344.469C293.021 346.288 291.62 346.656 291.816 348.154ZM309.233 263.725C309.288 265.118 307.289 265.075 305.959 265.493C305.901 264.105 307.895 264.148 309.233 263.725ZM277.36 272.932C276.699 270.441 277.657 269.076 280.227 268.837C280.426 269.995 280.634 271.161 280.837 272.322C279.675 272.526 278.518 272.733 277.36 272.932ZM247.044 324.94C244.908 329.243 240.93 322.695 247.044 324.94ZM234.422 280.505C234.625 277.532 240.848 273.542 241.38 279.276C238.732 280.113 236.988 282.394 234.422 280.505ZM237.418 331.421C236.44 329.043 238.681 328.918 240.492 328.488C240.23 330.002 239.425 331.136 237.418 331.421ZM361.171 307.211C365.97 308.795 357.76 311.239 356.735 309.19C355.664 306.026 361.574 311.333 361.171 307.211ZM368.751 289.125C370.061 289.191 369.944 291.292 371.481 291.034C372.075 295.168 367.21 289.246 368.207 292.809C364.73 292.755 369.662 290.682 368.751 289.125ZM370.871 246.872C371.289 246.633 376.546 243.469 372.036 246.668C370.104 248.037 367.237 248.933 370.871 246.872ZM381.861 241.345C381.916 242.737 379.917 242.698 378.588 243.117C378.533 241.724 380.524 241.767 381.861 241.345ZM381.658 260.526C380.234 261.582 378.916 260.205 380.289 259.567C380.598 259.427 381.177 259.564 381.451 259.36C383.058 258.171 382.444 259.939 381.658 260.526ZM387.114 264.343C389.39 264.879 386.637 265.72 384.998 265.915C385.96 266.96 387.877 266.647 387.932 268.99C385.436 269.647 384.071 268.693 383.836 266.119C384.662 265.341 385.511 264.578 387.114 264.343ZM400.42 299.091C400.729 298.86 399.771 297.104 400.01 296.775C399.595 297.343 404.856 297.671 404.86 297.112C404.856 297.777 400.495 300.386 399.466 300.456C396.959 300.632 400.021 299.396 400.42 299.091ZM405.067 257.592C408.466 254.103 402.951 261.981 405.067 257.592ZM381.513 286.876C381.11 283.9 385.354 283.368 387.11 284.69C385.812 287.482 384.126 284.357 381.513 286.876ZM416.808 249.539C417.196 250.489 416.55 250.712 415.85 250.908C415.08 251.045 414.305 251.182 413.535 251.315C413.327 250.153 413.124 248.995 412.921 247.834C414.516 247.978 415.099 249.555 416.808 249.539ZM422.339 260.53C422.386 261.922 420.391 261.883 419.061 262.305C419.007 260.909 421.005 260.952 422.339 260.53ZM414.755 298.958C418.15 295.465 412.635 303.342 414.755 298.958ZM433.733 277.665C434.792 275.694 436.068 273.879 437.558 272.205C443.041 273.484 436.686 280.039 430.451 279.441C426.598 279.116 432.242 277.548 433.733 277.665ZM435.712 261.762C434.808 262.657 433.889 263.53 433.392 262.172C433.424 260.663 435.493 260.592 435.712 261.762ZM438.583 257.667C438.915 260.584 434.71 258.699 433.944 258.484C433.69 255.445 436.216 259.724 438.583 257.667ZM440.906 236.917C444.301 233.425 438.79 241.302 440.906 236.917ZM442.197 271.387C442.032 271.215 443.014 269.416 442.951 268.865C442.955 268.927 441.825 268.982 441.786 269.068C444.43 263.53 444.571 273.883 442.197 271.387ZM448.415 232.005C447.927 233.694 446.311 234.602 444.18 235.142C444.101 233.053 445.713 232.15 448.415 232.005ZM455.166 270.296C460.642 267.738 456.011 264.5 455.166 270.296ZM459.261 252.821C459.011 254.338 458.198 255.468 456.191 255.758C456.449 254.244 457.259 253.114 459.261 252.821ZM460.224 231.117C460.274 232.509 458.28 232.47 456.95 232.889C456.891 231.496 458.894 231.539 460.224 231.117ZM462.883 266.541C465.586 266.189 464.878 263.972 468.277 263.197C469.501 265.884 466.896 264.906 467.319 264.57C464.964 266.455 463.493 269.353 459.195 265.998C459.551 261.801 461.776 266.686 462.883 266.541ZM463.978 238.834C463.083 238.419 463.697 242.589 464.389 241.149C463.912 242.143 463.654 242.323 463.224 241.357C463.263 241.447 460.881 237.402 463.978 238.834ZM467.385 251.385C467.358 252.903 465.285 252.965 465.066 251.796C465.281 250.02 466.102 251.737 467.385 251.385ZM468.613 278.694C472.466 284.165 470.905 274.172 468.613 278.694ZM477.081 252.074C477.132 253.466 475.137 253.423 473.804 253.849C473.753 252.457 475.743 252.5 477.081 252.074ZM476.397 241.427C476.71 241.282 477.288 241.423 477.558 241.22C479.166 240.031 478.552 241.795 477.762 242.377C476.342 243.437 475.028 242.065 476.397 241.427ZM481.583 277.602C480.55 278.776 479.303 276.945 479.056 276.855C474.128 275.056 482.271 276.812 481.583 277.602ZM432.027 281.557C435.422 278.064 429.907 285.941 432.027 281.557ZM486.636 238.427C486.171 239.624 483.722 240.75 485.885 240.946C485.893 242.303 484.837 241.799 484.728 241.149C483.703 241.118 483.711 241.799 483.769 242.522C480.151 241.822 484.583 238.49 486.636 238.427ZM491.877 322.449C491.349 323.611 490.845 324.776 492.288 324.772C491.791 328.109 488.021 324.303 486.284 324.635C487.587 321.835 489.269 324.964 491.877 322.449ZM489.288 314.533C492.57 313.758 495.898 315.151 491.811 315.284C490.372 315.33 483.679 315.851 489.288 314.533ZM491.209 250.779C489.288 254.776 483.539 250.748 491.209 250.779ZM499.665 325.864C496.95 326.833 496.767 324.186 493.653 325.723C493.117 323.873 500.83 322.042 499.665 325.864ZM501.855 250.098C505.825 253.857 499.493 251.976 498.581 251.87C496.129 251.592 500.545 251.424 501.855 250.098ZM506.498 249.281C503.94 243.809 500.697 248.432 506.498 249.281ZM508.755 221.366C509.736 223.744 507.487 223.865 505.684 224.296C505.939 222.786 506.748 221.652 508.755 221.366ZM511.207 255.625C511.011 255.57 507.855 255.821 508.68 254.878C509.686 253.74 514.805 256.697 511.207 255.625ZM502.602 308.595C502.669 307.285 504.769 307.402 504.511 305.865C507.53 304.457 507.249 307.758 509.56 307.367C509.048 310.715 505.645 306.389 502.602 308.595ZM494.334 336.373C494.001 333.459 498.202 335.341 498.98 335.556C498.828 339.166 496.301 334.883 494.334 336.373ZM493.993 341.219C491.686 341.61 491.96 338.317 488.944 339.717C490.731 337.03 492.664 337.026 495.699 337.331C495.155 338.646 493.246 338.998 493.993 341.219ZM518.435 303.409C518.494 304.805 516.491 304.762 515.157 305.185C515.107 303.792 517.101 303.831 518.435 303.409ZM522.542 224.918C521.509 226.087 520.269 224.257 520.015 224.163C515.087 222.363 523.23 224.131 522.542 224.918ZM520.348 280.34C523.75 276.844 518.232 284.725 520.348 280.34ZM521.024 331.668C520 331.633 520.011 332.313 520.066 333.033C516.655 327.534 527.822 336.369 521.024 331.668ZM530.114 247.513C530.756 249.993 526.089 248.761 524.517 249.692C525.217 247.489 528.057 245.976 530.114 247.513ZM529.297 242.866C533.486 243.085 533.45 240.355 537.213 240.273C537.475 242.909 528.342 244.126 532.234 245.937C532.254 248.941 528.718 245.409 529.297 242.866ZM529.711 224.847C539.505 226.764 533.024 220.674 529.711 224.847ZM536.251 302.662C536.2 301.266 538.195 301.309 539.525 300.886C539.579 302.279 537.585 302.239 536.251 302.662ZM529.426 297.886C523.52 296.65 534.765 297.667 534.276 298.223C532.809 299.889 529.758 297.953 529.426 297.886ZM390.227 451.65C389.973 453.16 389.164 454.29 387.153 454.579C387.411 453.066 388.221 451.935 390.227 451.65ZM390.978 449.119C394.377 445.63 388.862 453.508 390.978 449.119ZM401.625 468.777C400.545 472.52 396.83 468.05 393.501 470.209C393.795 467.608 400.448 467.866 401.625 468.777ZM403.33 464.89C399.912 466.388 400.542 462.097 397.123 463.595C397.053 459.379 402.474 462.034 403.33 464.89ZM402.45 432.743C403.506 429.019 403.811 435.277 400.334 434.311C398.058 433.779 400.807 432.938 402.45 432.743ZM418.69 470.557C421.874 472.696 415.467 470.135 412.889 471.582C412.698 469.916 412.502 468.257 411.114 468.304C412.068 465.637 415.737 471.273 418.69 470.557ZM418.42 441.887C419.296 438.039 420.536 444.95 417.669 444.414C415.279 443.812 418.803 443.507 418.42 441.887ZM425.789 463.325C425.926 464.096 426.063 464.87 426.196 465.648C435.77 464.98 425.699 466.755 421.557 466.466C422.042 464.772 423.653 463.865 425.789 463.325ZM425.37 459.535C425.664 459.367 425.93 459.019 426.129 458.479C425.847 459.25 425.593 459.539 425.37 459.535C424.862 459.84 424.271 459.598 423.81 458.89C423.622 458.596 421.834 457.967 422.237 456.77C423.751 452.334 424.279 459.512 425.37 459.535ZM428.241 477.249C428.19 475.853 430.189 475.9 431.519 475.473C431.574 476.866 429.575 476.827 428.241 477.249ZM435.481 464.01C435.532 465.398 433.537 465.363 432.203 465.781C432.152 464.389 434.147 464.428 435.481 464.01ZM435.012 434.178C437.53 434.405 437.785 435.551 436.783 437.456C436.009 437.593 435.231 437.73 434.46 437.867C434.91 436.826 435.336 435.766 435.012 434.178ZM442.443 442.443C442.24 441.277 442.036 440.116 441.829 438.962C444.915 436.658 446.135 443.55 442.443 442.443ZM451.04 470.835C451.095 472.231 449.104 472.192 447.766 472.61C447.711 471.218 449.71 471.257 451.04 470.835ZM453.297 442.916C452.636 443.162 451.556 441.543 451.728 440.804C452.765 436.396 454.306 442.548 453.297 442.916ZM460.939 472.681C460.067 473.764 458.534 474.386 456.504 474.656C460.126 472.614 457.677 466.27 460.939 472.681ZM465.93 426.336C465.899 427.842 463.83 427.912 463.611 426.743C463.826 424.967 464.651 426.684 465.93 426.336ZM471.046 455.342C470.338 457.564 469.599 459.754 465.856 459.848C465.113 456.613 468.109 455.999 471.046 455.342ZM472.133 468.312C469.998 472.614 466.02 466.067 472.133 468.312ZM478.344 469.61C478.485 470.385 478.618 471.159 478.755 471.934C477.985 472.067 477.206 472.208 476.436 472.341C476.299 471.566 476.162 470.796 476.025 470.021C476.8 469.884 477.578 469.747 478.344 469.61ZM482.518 418.627C482.44 420.262 479.784 420.098 478.079 420.602C478.161 418.963 480.816 419.128 482.518 418.627ZM484.157 427.905C482.013 432.207 478.043 425.66 484.157 427.905ZM492.413 440.812C492.456 442.189 493.031 442.83 493.982 442.928C492.194 445.951 487.383 446.839 483.742 445.924C484.845 442.443 488.85 444.093 492.413 440.812ZM485.928 431.182C489.323 427.693 483.809 435.571 485.928 431.182ZM490.845 418.349C490.814 419.859 488.745 419.93 488.522 418.76C488.741 416.984 489.566 418.697 490.845 418.349ZM485.721 470.706C485.655 468.82 487.043 470.412 487.082 471.66C487.145 473.541 485.756 471.949 485.721 470.706ZM481.826 468.996C482.373 467.686 484.282 467.322 483.535 465.109C487.45 465.081 486.101 469.282 481.826 468.996ZM399.716 471.511C400.69 471.566 401.073 472.466 402.239 472.258C402.098 475.106 396.873 473.936 399.716 471.511ZM502.993 432.962C501.597 433.013 501.636 431.018 501.218 429.68C504.933 428.206 503.51 431.749 502.993 432.962ZM504.558 455.42C504.613 456.813 502.618 456.77 501.28 457.188C501.229 455.796 503.224 455.839 504.558 455.42ZM465.445 612.38C464.651 612.661 463.443 612.79 461.671 612.54C463.032 611.132 464.229 610.58 465.109 610.487L462.167 593.797L435.082 598.577C434.918 599.019 434.632 598.901 434.245 598.721L406.514 603.611L399.884 566.004C399.411 566.086 398.942 566.172 398.472 566.254C398.508 565.229 397.827 565.241 397.107 565.296C396.634 564.103 398.183 563.457 399.462 563.626L387.114 493.59L511.211 471.711L510.401 467.099C508.802 466.579 506.732 464.475 505.035 464.905C505.117 463.266 507.769 463.431 509.47 462.922C509.478 464.045 509.693 464.866 510.1 465.41L504.538 433.869C504.48 433.889 504.409 433.897 504.354 433.912C504.351 433.764 504.448 433.685 504.484 433.564L500.271 409.662L376.174 431.546L362.532 354.177C361.48 354.021 361.675 353.966 362.497 353.978L354.971 311.29L406.064 302.282C406.432 301.101 407.245 300.229 408.951 299.983C408.822 300.757 408.54 301.422 408.039 301.934L430.22 298.023C429.325 297.577 428.683 296.775 428.476 295.344C430.408 295.004 432.34 294.659 434.276 294.319C435.168 296.858 429.704 294.941 431.139 297.859L445.99 295.242C446.065 295.062 446.159 294.851 446.288 294.593C448.106 292.727 447.375 294.108 446.624 295.129L456.668 293.357C456.731 293.185 456.758 292.985 456.731 292.751C457.247 292.571 457.552 292.782 457.681 293.181L475.869 289.974L480.367 315.499C481.082 315.733 481.54 316.23 481.372 317.126C481.098 317.087 480.879 317.079 480.644 317.063L481.575 322.347C481.97 322.191 482.643 322.965 483.554 322.723C483.535 323.783 482.518 324.092 481.829 323.802L485.792 346.261L554.876 334.081L533.669 213.825L513.921 217.31C514.41 218.077 513.722 219.778 513.393 220.549C512.138 220.592 512.036 218.992 511.723 217.697L318.46 251.776C317.697 252.422 317.04 252.461 317.341 251.972L235.103 266.471C234.504 267.769 233.429 269.283 233.98 269.021C232.963 269.627 232.592 268.892 229.854 268.149C229.908 267.883 230.002 267.613 230.108 267.355L223.439 268.528L234.829 333.135L282.804 324.675L286.035 343.007C286.066 343.073 286.137 343.097 286.153 343.171C286.141 343.265 286.117 343.316 286.102 343.39L309.026 473.373C309.624 473.217 310.309 473.436 310.434 474.089C310.289 475.266 309.878 474.922 309.249 474.648L334.238 616.357L286.262 624.817L295.594 677.749C295.751 677.713 295.923 677.682 296.068 677.635C296.083 678.003 295.942 678.265 295.719 678.464L297.652 689.42L464.217 660.05C462.918 659.812 462.899 656.366 466.169 658.407C465.68 659.28 465.222 659.741 464.823 659.945L473.557 658.404L465.445 612.38Z" fill="#0C2140"></path>
<path d="M961.395 522.032C960.558 521.907 959.96 521.817 959.491 521.747C958.943 521.669 958.517 521.606 958.38 521.583C958.489 521.598 958.857 521.653 959.491 521.747C961.743 522.083 966.12 522.733 961.395 522.032ZM954.977 519.572C954.918 517.695 956.303 519.283 956.342 520.527C956.401 522.412 955.024 520.82 954.977 519.572ZM952.65 560.664C956.053 557.171 950.538 565.053 952.65 560.664ZM939.75 548.582C939.035 549.165 939.449 550.769 939.003 551.105C937.932 551.915 935.601 551.371 934.365 551.926C930.402 553.69 929.033 557.559 926.1 559.362C924.207 559.064 925.811 558.165 927.058 558C926.921 557.222 926.785 556.448 926.648 555.677C923.468 554.934 923.108 561.904 922.001 556.495C924.653 554.144 928.114 555.474 930.876 552.54C931.329 552.059 931.228 548.997 931.427 548.856C932.249 548.261 933.973 548.649 934.908 548.242C936.891 547.366 937.529 544.679 938.933 543.943C941.209 542.735 945.003 542.872 948.015 541.143C946.431 544.671 942.852 546.063 939.75 548.582ZM946.372 552.196C944.448 556.193 938.706 552.169 946.372 552.196ZM936.207 562.369C936.226 560.86 938.303 560.789 938.522 561.959C937.611 562.854 936.696 563.727 936.207 562.369ZM932.859 577.314C932.8 575.922 934.795 575.965 936.132 575.543C936.183 576.935 934.189 576.896 932.859 577.314ZM918.594 543.939C919.752 543.732 920.918 543.529 922.075 543.325C922.036 547.143 924.888 546.525 923.096 549.122C921.731 547.194 919.545 546.451 918.594 543.939ZM918.864 572.605C919.083 570.829 919.905 572.543 921.184 572.194C921.148 573.704 919.087 573.775 918.864 572.605ZM923.03 541.956C920.695 542.876 919.819 541.702 918.188 541.616C917.456 539.633 924.317 538.397 923.03 541.956ZM911.089 528.506C912.344 526.581 917.37 525.693 919.208 527.074C921.465 533.958 911.061 536.211 911.089 528.506ZM907.4 548.304C907.482 546.666 910.134 546.83 911.836 546.321C911.754 547.96 909.106 547.8 907.4 548.304ZM906.853 572.327C906.88 570.822 908.953 570.755 909.168 571.921C908.265 572.812 907.342 573.689 906.853 572.327ZM900.861 470.486C901.569 468.608 901.944 466.5 904.885 466.187C904.173 468.065 904.76 470.846 900.861 470.486ZM898.882 445.712C896.574 450.488 892.256 447.468 898.882 445.712ZM898.385 578.609C897.352 579.786 896.112 577.948 895.858 577.858C890.934 576.055 899.081 577.819 898.385 578.609ZM894.563 584.069C894.423 583.291 894.29 582.516 894.153 581.75C894.927 581.613 895.702 581.476 896.472 581.343C896.609 582.11 896.742 582.884 896.879 583.658C896.108 583.795 895.334 583.932 894.563 584.069ZM892.925 574.784C892.956 573.274 895.025 573.208 895.244 574.373C894.341 575.269 893.417 576.141 892.925 574.784ZM920.03 511.378C920.339 511.237 920.922 511.37 921.195 511.171C922.799 509.978 922.189 511.75 921.399 512.333C919.975 513.389 918.661 512.012 920.03 511.378ZM936.207 542.027C936.125 543.666 933.469 543.505 931.767 544.006C931.85 542.367 934.505 542.531 936.207 542.027ZM887.073 446.592C890.488 444.625 890.214 447.922 892.123 448.098C892.193 450.628 886.671 449.322 887.073 446.592ZM889.174 567.071C889.045 566.797 889.17 566.124 888.966 565.909C888.873 565.815 887.856 566.226 887.809 566.112C886.596 563.398 891.333 566.296 891.493 566.664C892.06 567.943 889.647 568.072 889.174 567.071ZM886.107 508.984C884.688 510.041 883.377 508.664 884.742 508.03C885.051 507.885 885.634 508.018 885.904 507.827C887.515 506.63 886.901 508.398 886.107 508.984ZM882.212 568.299C882.157 566.906 884.156 566.946 885.485 566.523C885.536 567.916 883.542 567.88 882.212 568.299ZM880.37 537.513C880.585 535.738 881.41 537.451 882.693 537.103C882.665 538.616 880.589 538.683 880.37 537.513ZM880.092 569.867C878.574 569.136 876.716 568.886 874.084 569.73C873.552 567.873 881.269 566.05 880.092 569.867ZM862.968 520.241C864.611 515.825 878.828 516.334 881.465 509.802C884.312 511.703 877.714 515.016 874.366 517.038C872.152 518.375 868.115 519.713 862.968 520.241ZM864.67 557.038C864.697 555.525 866.77 555.458 866.993 556.628C866.774 558.403 865.953 556.686 864.67 557.038ZM863.121 392.194C863.183 391.998 862.937 388.842 863.872 389.667C865.01 390.669 862.053 395.792 863.121 392.194ZM878.539 445.708C876.02 439.192 870.458 447.132 878.539 445.708ZM883.8 448.372C883.088 446.956 880.89 448.481 881.472 448.778C876.92 446.471 884.023 443.846 883.8 448.372ZM887.132 494.446C890.535 490.954 885.016 498.831 887.132 494.446ZM885.36 491.169C885.466 491.09 887.382 488.517 888.634 489.397C889.624 490.081 881.879 493.555 885.36 491.169ZM854.567 554.031C854.786 552.255 855.611 553.968 856.89 553.62C856.859 555.13 854.786 555.196 854.567 554.031ZM841.734 569.453C839.516 568.968 841.198 567.376 841.12 565.972C843.338 566.457 841.66 568.052 841.734 569.453ZM836.067 584.808C833.301 589.725 831.533 581.977 836.067 584.808ZM830.536 573.822C829.226 573.755 829.343 571.651 827.81 571.905C827.962 568.295 830.481 572.578 832.449 571.088C832.386 572.402 830.278 572.284 830.536 573.822ZM827.743 585.082C827.544 585.023 824.384 585.274 825.213 584.331C826.214 583.189 831.338 586.154 827.743 585.082ZM860.661 418.951C858.521 423.249 854.547 416.702 860.661 418.951ZM857.989 485.227C856.065 489.221 850.323 485.196 857.989 485.227ZM853.499 378.332C853.3 378.235 852.486 378.692 852.337 378.54C851.735 377.906 851.078 377.093 853.296 377.175C852.615 377.151 855.365 378.11 855.783 378.016C855.627 378.458 854.868 380.464 855.071 380.448C853.433 380.558 854.52 378.833 853.499 378.332ZM849.885 384.954C853.276 381.465 847.761 389.343 849.885 384.954ZM849.326 449.662C849.126 449.604 845.97 449.85 846.803 448.911C847.8 447.773 852.92 450.734 849.326 449.662ZM847.343 485.908C850.738 482.415 845.223 490.296 847.343 485.908ZM846.862 496.766C846.807 494.877 848.184 496.468 848.223 497.716C848.289 499.597 846.905 498.006 846.862 496.766ZM843.795 479.353C842.876 477.018 844.049 476.142 844.135 474.511C846.118 473.779 847.354 480.643 843.795 479.353ZM841.546 425.909C841.495 424.517 843.49 424.56 844.824 424.133C844.879 425.522 842.884 425.483 841.546 425.909ZM839.156 459.832C836.767 457.489 841.566 461.435 841.883 461.744C843.314 463.144 841.871 462.495 839.156 459.832ZM838.273 427.681C839.375 425.811 838.707 427.505 838.476 428.846C835.632 429.492 836.254 427.771 838.273 427.681ZM832.539 415.533C834.807 418.239 841.89 413.62 838.343 414.508C841.374 413.745 840.099 411.547 843.185 414.852C842.587 416.553 832.359 419.761 832.539 415.533ZM831.854 425.225C836.376 427.517 826.382 429.081 831.854 425.225ZM822.78 428.017C822.612 426.891 824.039 426.871 824.892 426.453C824.931 425.424 824.247 425.436 823.531 425.498C823.277 422.455 825.807 426.738 828.166 424.681C827.657 427.129 824.845 429.566 822.78 428.017ZM814.86 430.614C814.222 428.131 818.88 429.367 820.457 428.428C821.098 430.912 816.432 429.687 814.86 430.614ZM819.635 444.128C818.212 445.184 816.897 443.807 818.27 443.173C818.579 443.033 819.162 443.166 819.432 442.97C821.039 441.777 820.425 443.545 819.635 444.128ZM810.643 332.05C808.504 336.353 804.526 329.805 810.643 332.05ZM800.939 433.071C800.881 431.678 802.876 431.721 804.209 431.291C804.264 432.687 802.265 432.644 800.939 433.071ZM797.932 422.835C798.151 421.051 798.968 422.768 800.255 422.424C800.224 423.934 798.155 423.996 797.932 422.835ZM793.989 291.913C793.942 290.521 795.933 290.56 797.267 290.137C797.318 291.534 795.323 291.494 793.989 291.913ZM792.605 433.341C790.801 433.254 791.443 430.751 792.198 431.021C792.964 431.291 792.475 432.856 793.77 433.133C794.275 433.251 795.221 431.103 795.882 431.569C798.46 433.372 792.612 433.341 792.605 433.341ZM783.045 446.991C782.013 448.168 780.773 446.334 780.523 446.244C775.598 444.445 783.742 446.205 783.045 446.991ZM778.336 460.985C778.367 459.472 780.437 459.405 780.659 460.575C779.748 461.47 778.829 462.343 778.336 460.985ZM763.947 413.268C763.735 409.106 765.519 407.917 769.129 408.766C767.627 410.428 766.884 412.619 763.947 413.268ZM758.545 457.297C758.209 454.379 762.41 456.268 763.188 456.476C763.031 460.09 760.509 455.807 758.545 457.297ZM754.927 423.234C754.88 421.845 756.871 421.884 758.205 421.458C758.26 422.85 756.265 422.811 754.927 423.234ZM748.239 432.789C747.723 430.732 749.229 430.094 748.579 427.943C749.627 428.393 750.68 428.823 752.268 428.487C751.56 430.368 751.18 432.476 748.239 432.789ZM747.558 442.481C747.496 440.6 748.884 442.188 748.92 443.436C748.982 445.321 747.598 443.725 747.558 442.481ZM748.509 420.774C748.568 422.17 746.573 422.127 745.235 422.553C745.184 421.157 747.179 421.196 748.509 420.774ZM749.608 413.405C750.249 415.888 745.587 414.656 744.007 415.591C743.369 413.104 748.036 414.34 749.608 413.405ZM728.988 445.755C727.505 447.875 723.453 444.476 721.615 444.664C722.522 441.781 726.848 445.188 726.465 445C726.672 445.106 729.746 444.675 728.988 445.755ZM719.98 455.717C718.998 453.339 721.247 453.214 723.05 452.783C722.8 454.297 721.987 455.431 719.98 455.717ZM721.822 445.821C721.873 447.214 719.874 447.175 718.549 447.597C718.494 446.205 720.489 446.248 721.822 445.821ZM704.824 451.211C705.078 449.697 705.892 448.567 707.898 448.278C707.64 449.795 706.83 450.926 704.824 451.211ZM699.505 461.725C703.052 460.524 704.327 462.581 706.873 462.816C706.537 463.77 700.545 466.356 699.505 461.725ZM702.637 465.957C700.087 469.355 695.327 463.794 702.637 465.957ZM698.405 469.093C696.481 473.091 690.739 469.066 698.405 469.093ZM697.525 436.947C695.597 440.94 689.855 436.915 697.525 436.947ZM684.959 460.696C685.451 459.01 687.059 458.103 689.194 457.559C690.978 460.845 686.969 460.07 684.959 460.696ZM687.419 454.281C686.496 458.971 680.75 454.954 687.419 454.281ZM683.12 450.257C679.272 450.339 673.808 454.532 670.15 451.34C672.888 449.748 675.873 452.099 681.755 449.295C681.579 446.158 675.446 451.528 676.502 446.635C682.244 445.888 683.206 446.588 686.805 450.8C688.228 455.467 682.15 450.276 683.12 450.257ZM670.017 437.009C668.093 441.003 662.347 436.982 670.017 437.009ZM666.939 460.285C666.971 458.776 669.04 458.709 669.267 459.875C668.355 460.774 667.432 461.646 666.939 460.285ZM672.27 409.095C677.277 413.815 667.24 414.797 672.27 409.095ZM667.718 373.897C668.222 373.533 668.519 372.739 668.254 372.712C670.131 372.872 668.422 373.823 668.457 373.874C669.708 375.473 673.182 374.961 674.668 375.172C674.445 377.699 673.287 377.949 671.39 376.944C675.071 380.746 674.59 383.879 669.345 385.682C665.903 385.779 670.154 383.085 669.888 381.997C669.552 380.62 662.187 380.992 669.482 379.678C667.514 378.606 666.904 375.61 664.976 374.488C661.288 373.146 667.111 373.565 667.718 373.897ZM660.939 439.81C660.799 439.035 660.666 438.261 660.529 437.486C661.303 437.353 662.078 437.217 662.848 437.08C662.985 437.854 663.122 438.625 663.259 439.399C662.484 439.536 661.71 439.673 660.939 439.81ZM656.023 452.639C656.101 451 658.757 451.164 660.454 450.66C660.376 452.298 657.724 452.134 656.023 452.639ZM653.966 502.058C653.997 500.548 656.066 500.481 656.289 501.651C655.382 502.547 654.458 503.419 653.966 502.058ZM654.306 517.55C654.11 517.491 650.954 517.742 651.779 516.799C652.784 515.661 657.904 518.618 654.306 517.55ZM646.605 439.943C646.992 438.277 649.44 438.859 649.675 437.005C649.765 436.294 646.499 437.001 647.148 436.258C647.809 435.503 648.85 433.352 645.377 432.981C644.989 432.03 645.639 431.807 646.331 431.612C647.105 431.475 647.876 431.342 648.65 431.205C648.951 433.196 650.047 434.06 651.588 434.275C652.249 437.921 649.429 441.801 646.605 439.943ZM649.522 544.718C648.333 543.998 646.683 543.932 644.676 544.374C643.945 542.395 650.813 541.159 649.522 544.718ZM650.066 561.376C650.723 564.219 648.994 563.598 648.908 561.579C650.34 558.552 656.766 560.598 650.066 561.376ZM651.846 544.307C655.245 540.818 649.726 548.696 651.846 544.307ZM648.294 578.433C647.911 575.456 649.186 573.638 652.112 572.973C650.324 575.574 653.176 574.952 653.136 578.781C650.794 579.7 649.925 578.527 648.294 578.433ZM657.709 591.133C654.47 588.528 655.147 594.759 651.908 592.158C650.414 590.19 654.693 587.667 651.087 587.515C653.003 583.482 657.388 588.086 657.709 591.133ZM662.969 573.458C663.02 574.85 661.025 574.807 659.692 575.23C659.637 573.837 661.632 573.876 662.969 573.458ZM665.766 562.193C665.821 563.59 663.818 563.543 662.492 563.969C662.437 562.577 664.432 562.616 665.766 562.193ZM668.218 596.46C668.003 598.236 667.182 596.519 665.895 596.867C665.926 595.361 667.999 595.291 668.218 596.46ZM670.268 608.065C670.237 609.574 668.164 609.641 667.945 608.475C668.164 606.696 668.985 608.409 670.268 608.065ZM671.699 616.185C666.646 621.398 663.732 615.062 671.699 616.185ZM672.72 621.989C672.501 623.765 671.684 622.048 670.397 622.4C670.428 620.886 672.501 620.819 672.72 621.989ZM675.794 598.709C675.579 600.493 674.758 598.775 673.475 599.12C673.506 597.614 675.575 597.543 675.794 598.709ZM684.188 585.27C684.509 585.172 683.335 583.541 682.827 584.312C679.526 582.336 686.57 583.991 687.673 584.656C687.689 586.009 686.621 585.505 686.515 584.859C682.142 585.868 682.968 590.519 678.047 591.137C677.883 590.003 679.311 589.983 680.167 589.568C678.579 586.338 676.549 590.922 674.363 590.593C675.384 586.58 682.146 585.876 684.188 585.27ZM677.023 585.336C676.389 585.477 675.388 585.192 675.661 584.382C677.015 580.279 680.59 584.538 677.023 585.336ZM686.719 565.678C688.005 570.075 683.132 565.674 682.698 569.977C678.603 568.647 685.049 566.316 686.719 565.678ZM684.333 558.92C685.314 558.974 685.694 559.882 686.863 559.671C686.719 562.514 681.493 561.349 684.333 558.92ZM690.677 615.234C690.724 616.627 688.733 616.587 687.395 617.006C687.341 615.613 689.339 615.657 690.677 615.234ZM689.386 560.418C689.695 560.281 690.278 560.418 690.544 560.214C692.151 559.025 691.537 560.793 690.751 561.384C689.327 562.432 688.013 561.059 689.386 560.418ZM699.481 604.11C695.953 604.302 693.266 603.301 690.743 602.061C690.939 600.938 699.023 600.786 699.481 604.11ZM702.215 606.023C702.352 606.794 702.485 607.568 702.622 608.339C701.847 608.475 701.073 608.612 700.299 608.749C700.162 607.979 700.025 607.204 699.892 606.43C700.662 606.293 701.437 606.156 702.215 606.023ZM691.357 605.542C696.473 605.135 691.326 612.492 691.357 605.542ZM687.258 602.675C685.181 606.891 681.853 599.421 687.258 602.675ZM682.142 614.346C681.916 614.264 679.972 613.079 680.57 612.226C681.274 611.225 681.908 613.181 681.935 613.185C684.517 613.494 687.872 616.47 682.142 614.346ZM684.188 605.608C683.699 607.298 682.092 608.206 679.956 608.745C678.779 605.229 682.142 604.083 684.188 605.608ZM676.276 608.202C681.368 608.558 677.343 614.299 676.276 608.202ZM665.625 608.882C664.593 610.059 663.349 608.225 663.098 608.127C658.174 606.328 666.317 608.096 665.625 608.882ZM653.68 595.435C653.547 591.95 660.325 593.308 661.19 590.519C662.5 590.585 662.379 592.686 663.92 592.435C662.136 595.455 657.321 596.347 653.68 595.435ZM654.634 614.409C652.417 613.924 654.095 612.328 654.024 610.928C656.234 611.417 654.556 613.009 654.634 614.409ZM645.905 551.336C645.06 551.179 644.633 548.844 643.178 549.423C643.667 547.733 645.275 546.826 647.406 546.286C643.483 547.303 647.661 551.774 648.017 549.771C648.075 549.493 649.19 551.965 645.905 551.336ZM642.556 586.627C642.772 584.847 643.597 586.564 644.88 586.22C644.841 587.726 642.779 587.793 642.556 586.627ZM640.437 608.538C640.386 607.142 642.38 607.185 643.71 606.762C643.765 608.159 641.766 608.116 640.437 608.538ZM636.005 590.175C635.943 586.072 640.37 588.712 642.967 588.946C642.455 592.298 639.052 587.961 636.005 590.175ZM633.607 624.101C633.83 622.321 634.644 624.038 635.931 623.69C635.903 625.2 633.827 625.267 633.607 624.101ZM628.765 603.418C629.927 597.962 638.704 599.867 633.408 602.597C631.765 603.442 629.595 601.416 628.765 603.418ZM628.292 553.248C630.467 552.388 630.924 558.231 627.748 556.933C627.087 555.118 628.492 554.742 628.292 553.248ZM622.433 465.738C622.926 464.048 624.537 463.144 626.669 462.597C628.456 465.886 624.447 465.112 622.433 465.738ZM620.579 597.68C630.377 599.597 623.892 593.507 620.579 597.68ZM624.123 604.236C621.365 609.144 619.593 601.4 624.123 604.236ZM618.393 592.083C617.743 590.3 624.373 589.353 622.077 592.631C622.449 592.107 618.365 592.005 618.393 592.083ZM613.285 502.054C613.148 501.279 613.011 500.505 612.874 499.73C615.138 498.929 616.55 499.328 616.769 501.436C615.608 501.643 614.446 501.846 613.285 502.054ZM613.069 582.254C611.712 582.266 612.221 581.206 612.866 581.093C611.79 579.685 609.87 582.211 606.854 580.956C607.308 579.915 607.734 578.859 607.406 577.271C608.798 577.217 608.759 579.215 609.178 580.545C611.247 580.572 610.691 577.099 609.936 578.022C612.717 574.655 612.119 577.076 615.936 578.159C616.766 580.776 612.811 580.041 613.069 582.254ZM606.049 535.636C604.488 536.09 604.774 533.723 605.638 533.316C605.955 533.164 606.51 533.305 606.796 533.113C606.835 533.082 606.573 531.948 606.592 531.944C610.93 531.779 605.008 535.937 606.049 535.636ZM605.493 559.659C603.358 563.965 599.38 557.41 605.493 559.659ZM604.883 576.524C602.955 580.51 597.213 576.489 604.883 576.524ZM599.959 630.034C602.298 629.115 603.174 630.289 604.801 630.375C605.536 632.358 598.668 633.586 599.959 630.034ZM602.959 619.932C603.107 622.677 600.334 623.143 598.527 621.911C598.609 620.272 601.257 620.436 602.959 619.932ZM603.522 534.881C605.395 538.573 600.229 537.326 598.128 538.225C598.809 536.328 600.604 535.217 603.522 534.881ZM596.885 632.968C600.283 629.471 594.769 637.348 596.885 632.968ZM597.772 624.437C594.784 629.17 591.147 623.135 597.772 624.437ZM587.063 597.606C586.926 596.835 586.79 596.061 586.653 595.287C587.427 595.15 588.198 595.013 588.972 594.88C589.109 595.65 589.246 596.425 589.383 597.199C588.608 597.332 587.838 597.473 587.063 597.606ZM588.358 611.737C586.43 615.731 580.688 611.71 588.358 611.737ZM582.96 635.42C580.684 634.896 583.438 634.051 585.076 633.852C586.136 630.132 586.441 636.386 582.96 635.42ZM584.943 599.178C581.341 603.993 578.498 597.047 584.943 599.178ZM582.01 596.104C582.061 597.496 580.066 597.457 578.732 597.884C578.682 596.487 580.68 596.53 582.01 596.104ZM570.816 600.473C571.184 599.945 567.104 599.851 567.128 599.929C566.478 598.138 573.108 597.195 570.816 600.473ZM567.941 624.907C568.203 623.389 569.013 622.263 571.015 621.973C570.761 623.487 569.952 624.621 567.941 624.907ZM559.896 613.165C558.355 610.056 560.999 609.872 560.033 607.161C564.531 606.543 567.167 608.589 569.173 611.526C567.793 613.533 561.879 614.577 559.896 613.165ZM562.825 636.582C562.051 636.719 561.276 636.856 560.506 636.992C560.541 635.964 559.86 635.976 559.137 636.03C558.284 633.863 564.124 633.41 562.825 636.582ZM552.863 607.228C552.91 607.267 555.75 604.462 554.369 602.178C553.423 600.626 553.059 602.835 550.88 602.792C549.601 598.001 554.518 601.298 556.481 600.606C558.273 603.348 553.567 607.279 558.668 606.203C560.099 607.681 553.88 608.061 552.863 607.228ZM549.523 581.495C550.297 581.359 551.068 581.222 551.842 581.085C551.979 581.859 552.116 582.634 552.253 583.404C551.479 583.545 550.704 583.678 549.93 583.815C549.797 583.044 549.656 582.266 549.523 581.495ZM559.555 597.673C564.081 599.968 554.08 601.529 559.555 597.673ZM569.521 586.345C567.214 591.121 562.896 588.102 569.521 586.345ZM567.886 577.06C568.524 579.544 563.858 578.312 562.285 579.243C561.648 576.763 566.314 577.991 567.886 577.06ZM583.586 577.881C583.637 579.274 581.642 579.235 580.309 579.653C580.254 578.261 582.245 578.304 583.586 577.881ZM600.111 501.983C599.896 503.755 599.071 502.042 597.792 502.39C597.819 500.88 599.892 500.814 600.111 501.983ZM604.817 549.008C604.844 550.726 601.426 550.025 601.742 551.946C598.742 551.965 602.274 548.434 604.817 549.008ZM602.427 542.25C601.77 540.439 603.174 540.063 602.978 538.569C605.145 537.709 605.599 543.556 602.427 542.25ZM613.277 542.735C613.918 545.215 609.26 543.986 607.684 544.913C608.388 542.715 611.219 541.202 613.277 542.735ZM612.94 506.9C611.02 510.889 605.274 506.868 612.94 506.9ZM611.869 482.478C613.93 481.363 617.305 479.537 613.292 481.711C612.698 482.032 612.252 482.271 611.869 482.478C611.255 482.814 610.75 483.088 610.605 483.166C610.719 483.1 611.129 482.881 611.869 482.478ZM615.068 444.304C614.818 445.821 614.004 446.952 611.998 447.237C612.936 444.644 610.551 442.61 615.068 444.304ZM618.08 413.862C618.131 415.255 616.132 415.212 614.802 415.634C614.743 414.246 616.742 414.285 618.08 413.862ZM618.217 387.516C617.305 388.408 616.39 389.284 615.897 387.927C615.921 386.417 617.998 386.351 618.217 387.516ZM619.018 493.86C618.999 495.913 615.24 493.422 614.786 497C610.832 495.87 617.317 491.395 619.018 493.86ZM627.631 420.555C627.768 421.325 627.905 422.103 628.042 422.878C627.263 423.015 626.493 423.152 625.718 423.285C625.582 422.514 625.445 421.736 625.308 420.965C626.082 420.828 626.853 420.691 627.631 420.555ZM633.478 589.424C630.662 593.413 625.816 588.012 633.478 589.424ZM632.665 544.1C633.392 546.083 626.532 547.319 627.819 543.756C629.876 543.243 630.518 544.749 632.665 544.1ZM631.926 465.268C632.059 466.035 632.195 466.809 632.332 467.588C631.558 467.721 630.787 467.857 630.013 467.994C629.876 467.216 629.739 466.446 629.602 465.675C630.377 465.538 631.151 465.401 631.926 465.268ZM635.755 419.119C635.806 420.515 633.815 420.476 632.481 420.895C632.422 419.502 634.417 419.542 635.755 419.119ZM634.006 232.778C633.87 232.008 633.733 231.234 633.596 230.459C634.37 230.322 635.145 230.185 635.919 230.048C636.056 230.823 636.193 231.597 636.33 232.372C635.551 232.509 634.781 232.645 634.006 232.778ZM627.866 218.307C626.473 218.358 626.509 216.363 626.09 215.029C629.814 213.551 628.382 217.102 627.866 218.307ZM616.801 257.349C616.03 256.942 613.867 257.333 613.116 256.801C611.884 255.933 611.176 253.845 609.976 252.569C608.435 250.935 604.738 250.34 605.47 247.383C612.545 248.161 614.266 256.399 620.692 259.058C622.339 259.735 624.827 257.529 624.58 260.764C620.951 262.007 619.527 258.792 616.801 257.349ZM600.01 243.562C604.922 246.323 597.174 248.087 600.01 243.562ZM589.981 247.719C598.915 249.593 594.593 242.326 589.981 247.719ZM586.426 241.168C585.698 239.185 592.563 237.949 591.276 241.508C589.218 242.029 588.577 240.523 586.426 241.168ZM616.668 202.341C616.726 203.729 614.732 203.686 613.394 204.109C613.343 202.713 615.338 202.756 616.668 202.341ZM623.153 232.301C623.071 233.94 620.415 233.776 618.713 234.276C618.796 232.642 621.451 232.802 623.153 232.301ZM622.812 216.801C621.78 217.978 620.54 216.148 620.29 216.054C615.365 214.255 623.505 216.023 622.812 216.801ZM639.74 204.254C638.125 206.698 635.113 204.699 634.488 201.582C637.46 200.726 639.549 201.128 639.74 204.254ZM643.953 363.837C644.004 365.23 642.005 365.187 640.675 365.609C640.624 364.213 642.619 364.256 643.953 363.837ZM643.131 359.195C643.272 359.965 643.405 360.74 643.542 361.514C642.768 361.651 641.993 361.788 641.223 361.925C641.086 361.15 640.949 360.376 640.812 359.601C641.586 359.468 642.361 359.331 643.131 359.195ZM647.434 363.219C646.53 364.115 645.607 364.991 645.111 363.63C645.146 362.12 647.211 362.054 647.434 363.219ZM647.915 372.708C647.962 374.104 645.967 374.057 644.633 374.48C644.579 373.091 646.573 373.13 647.915 372.708ZM648.028 488.744C648.666 491.231 644.011 490.003 642.431 490.93C641.794 488.446 646.456 489.682 648.028 488.744ZM642.983 446.565C642.76 446.478 640.816 445.297 641.414 444.449C642.122 443.443 642.752 445.399 642.779 445.403C645.365 445.712 648.721 448.688 642.983 446.565ZM643.816 369.841C642.83 369.149 646.534 368.206 647.094 368.065C647.086 368.065 646.906 366.904 646.89 366.908C651.196 366.743 645.553 371.057 643.816 369.841ZM654.869 391.822C658.147 393.88 651.678 395.018 650.223 392.64C649.71 389.034 655.393 395.429 654.869 391.822ZM658.968 374.351C659.015 375.743 657.024 375.7 655.69 376.123C655.64 374.73 657.634 374.773 658.968 374.351ZM650.223 433.321C649.569 431.537 656.207 430.591 653.907 433.865C654.279 433.344 650.195 433.243 650.223 433.321ZM653.567 438.715C649.382 437.009 656.97 435.089 656.023 432.3C657.38 432.288 656.876 433.348 656.23 433.458C656.152 435.507 657.521 435.488 658.96 435.367C658.112 439.27 652.988 433.818 653.567 438.715ZM659.782 419.671C659.75 421.184 657.677 421.251 657.458 420.081C657.677 418.302 658.499 420.019 659.782 419.671ZM664.237 275.306C664.291 276.698 662.293 276.659 660.963 277.081C660.908 275.685 662.907 275.732 664.237 275.306ZM665.132 205.752C664.424 207.633 664.049 209.737 661.104 210.05C661.816 208.177 662.195 206.068 665.132 205.752ZM667.514 273.534C667.647 274.308 667.788 275.083 667.921 275.853C667.151 275.99 666.376 276.127 665.602 276.264C665.461 275.493 665.328 274.719 665.191 273.945C665.965 273.808 666.74 273.671 667.514 273.534ZM666.959 317.903C663.846 322.116 658.033 318.044 666.959 317.903ZM666.008 298.926C665.872 298.151 665.735 297.377 665.602 296.606C666.372 296.47 667.147 296.333 667.917 296.196C668.054 296.97 668.195 297.745 668.328 298.515C667.557 298.652 666.779 298.785 666.008 298.926ZM670.119 200.088C670.373 202.306 666.419 201.57 667.252 204.187C665.32 203.487 667.26 202.392 665.269 199.752C667.608 198.829 668.484 200.006 670.119 200.088ZM677.734 412.916C677.707 412.263 678.153 411.934 678.755 411.715L706.427 247.34L794.49 402.633L676.792 423.386L678.587 412.712C678.294 412.771 677.996 412.834 677.734 412.916ZM681.172 222.069C681.818 227.862 676.072 223.837 681.172 222.069ZM695.632 276.948C697.432 272.024 695.672 280.167 694.885 279.475C693.712 278.446 695.542 277.207 695.632 276.948ZM712.302 195.046C712.357 196.439 710.358 196.396 709.021 196.822C708.97 195.426 710.965 195.465 712.302 195.046ZM712.705 238.043C717.238 240.883 715.466 233.134 712.705 238.043ZM719.601 229.653C719.652 231.046 717.657 231.003 716.323 231.429C716.276 230.037 718.271 230.076 719.601 229.653ZM744.312 200.166C743.843 197.44 747.551 200.033 747.046 202.075C745.837 203.929 741.844 204.633 740.076 203.307C735.758 201.903 749.393 203.35 744.312 200.166ZM744.316 179.832C745.157 181.251 738.652 181.353 739.267 178.326C741.085 178.627 742.493 179.523 744.316 179.832ZM750.112 199.145C760.716 195.328 743.002 198.504 750.112 199.145ZM756.593 229.11C765.98 226.536 759.883 231.762 755.436 229.317C755.42 227.956 756.484 228.46 756.593 229.11ZM758.573 253.891C753.648 252.092 761.792 253.852 761.095 254.639C760.063 255.812 758.823 253.981 758.573 253.891ZM762.175 328.632C761.964 330.412 761.138 328.691 759.859 329.039C759.887 327.529 761.956 327.462 762.175 328.632ZM761.776 285.624C770.971 288.545 761.107 280.39 761.776 285.624ZM772.285 290.955C771.441 296.751 766.81 293.513 772.285 290.955ZM773.119 193.893C773.169 195.285 771.175 195.242 769.841 195.668C769.79 194.272 771.785 194.315 773.119 193.893ZM779.513 359.077C779.564 360.47 777.566 360.427 776.236 360.853C776.185 359.457 778.18 359.5 779.513 359.077ZM780.401 350.543C777.421 351.403 775.336 351 775.145 347.883C778.121 347.015 780.214 347.422 780.401 350.543ZM779.107 316.073C778.856 317.59 778.043 318.721 776.036 319.006C776.291 317.497 777.1 316.362 779.107 316.073ZM789.284 285.565C788.869 289.116 787.774 287.176 784.845 287.54C784.696 284.794 787.473 284.333 789.284 285.565ZM794.47 321.74C794.286 321.783 795.87 319.808 795.628 321.537C795.338 323.539 785.122 323.825 794.47 321.74ZM787.719 263.106C788.717 261.968 793.84 264.929 790.238 263.857C790.043 263.799 786.886 264.049 787.719 263.106ZM803.122 418.329C802.969 421.935 800.443 417.652 798.483 419.147C798.143 416.233 802.347 418.114 803.122 418.329ZM800.673 343.381C804.072 339.889 798.554 347.77 800.673 343.381ZM826.406 360.376C825.498 361.271 824.579 362.144 824.082 360.786C824.114 359.277 826.187 359.214 826.406 360.376ZM831.244 421.744C831.095 425.354 828.565 421.075 826.601 422.561C826.265 419.647 830.47 421.532 831.244 421.744ZM830.423 417.105C830.395 418.615 828.326 418.677 828.103 417.512C828.322 415.732 829.144 417.449 830.423 417.105ZM830.157 388.431C830.207 389.824 828.213 389.785 826.879 390.207C826.824 388.811 828.819 388.862 830.157 388.431ZM834.455 392.46C834.823 391.936 830.735 391.834 830.771 391.912C830.118 390.125 836.751 389.186 834.455 392.46ZM836.227 395.734C835.194 396.911 833.954 395.08 833.7 394.987C828.776 393.187 836.923 394.951 836.227 395.734ZM838.347 394.169C841.456 392.632 841.64 395.272 844.355 394.302C844.883 396.16 837.173 397.983 838.347 394.169ZM842.168 388.709C847.261 389.061 843.24 394.811 842.168 388.709ZM847.683 460.719C847.742 462.116 845.739 462.073 844.409 462.495C844.358 461.103 846.353 461.142 847.683 460.719ZM845.035 384.614C846.322 383.534 847.37 382.952 846.193 384.411C845.047 385.83 843.611 385.811 845.035 384.614ZM785.267 188.159C784.238 189.332 782.998 187.502 782.744 187.408C777.82 185.609 785.959 187.376 785.267 188.159ZM786.366 180.786C786.503 181.564 786.636 182.335 786.773 183.113C786.002 183.246 785.228 183.383 784.45 183.52C784.317 182.745 784.176 181.975 784.043 181.197C784.817 181.06 785.592 180.923 786.366 180.786ZM791.959 178.607C791.212 182.37 785.584 178.435 791.959 178.607ZM797.349 175.259C798.87 175.517 799.997 176.323 800.29 178.33C797.11 179.096 795.988 177.25 797.349 175.259ZM809.435 182.702C809.486 184.095 807.491 184.056 806.153 184.474C806.102 183.086 808.101 183.129 809.435 182.702ZM810.049 186.183C811.359 186.727 811.715 188.644 813.94 187.889C813.976 190.869 809.45 188.753 810.049 186.183ZM815.102 167.351C814.046 168.18 811.031 174.266 810.667 169.326C812.767 169.107 812.861 167.472 815.102 167.351ZM985.266 568.174L973.876 503.571L937.411 510.001L903 449.772C902.675 449.83 902.347 449.885 902.022 449.944C901.885 449.169 901.749 448.395 901.612 447.624C901.662 447.617 901.709 447.609 901.76 447.597L897.825 440.709C896.41 440.811 893.985 439.305 893.421 441.887C890.597 441.128 893.777 439.321 896.691 438.726L780.965 236.177L827.02 228.054L815.744 164.089L677.105 188.534C678.72 188.706 680.285 189.547 680.496 191.084C677.641 188.745 676.186 193.486 673.33 191.147C673.201 190.134 673.686 189.445 674.425 189.007L612.225 199.975C612.408 200.346 612.052 200.765 610.461 201.039C610.214 200.792 610.034 200.577 609.897 200.385L577.79 206.045L581.885 229.266C583.183 229.309 584.67 229.09 586.5 227.995C585.722 230.224 584.06 230.905 582.182 230.944L586.684 256.477C588.628 256.137 591.393 257.048 592.774 256.801C591.174 258.804 588.929 258.675 587.028 258.436L589.07 270.014L635.125 261.894L615.526 376.068C615.741 376.017 615.972 375.978 616.171 375.915C616.191 376.475 615.835 376.772 615.365 376.991L583.344 563.523C585.053 563.691 587.666 565.35 584.814 564.501C584.717 564.474 583.891 564.521 583.183 564.462L581.764 572.711L545.303 579.141L556.696 643.743L718.529 615.211L714.907 594.673C713.292 595.603 709.553 596.875 709.447 592.776C711.497 594.199 713.433 593.347 714.712 593.554L707.249 551.242L686.793 554.852C686.609 555.036 686.496 555.075 686.511 554.899L656.078 560.265L660.032 535.053C657.928 536.876 655.8 538.691 652.186 539.461C653.915 537.146 655.984 535.077 660.126 534.459L661.827 523.613C659.273 524.407 655.178 525.772 651.103 526.491C646.667 524.966 653.332 525.424 654.372 524.72C654.955 524.324 654.979 522.263 655.123 522.193C655.718 521.907 657.423 523.225 658.808 522.736C659.645 522.447 660.537 521.469 662.07 522.06L667.565 487.011L824.915 459.264L841.186 488.72C841.738 488.509 842.313 488.255 842.907 487.891C843.521 489.033 842.348 488.794 841.949 489.252C841.941 489.26 841.859 489.475 841.754 489.749L858.572 520.202C858.979 519.134 859.8 518.356 861.396 518.129C861.173 519.459 860.469 520.456 858.951 520.883L860.766 524.176L812.153 532.745L817.218 561.47C817.363 561.544 817.508 561.622 817.644 561.74C818.157 562.178 817.84 562.381 817.39 562.432L821.419 585.305C822.056 584.965 822.952 585.141 823.097 585.9C822.612 586.377 822.135 586.819 821.712 586.952L823.433 596.71L867.408 588.958C868.033 588.407 869.164 588.321 870.267 588.454L924.641 578.867C925.326 577.881 926.702 576.767 928.009 576.974C929.781 575.324 928.635 577.001 927.449 578.37L951.793 574.08C951.664 574.072 951.566 574.021 951.422 574.041C951.285 573.266 951.148 572.492 951.011 571.725C957.895 569.414 961.313 568.811 966.503 571.381C966.386 571.408 966.284 571.479 966.187 571.541L985.266 568.174Z" fill="#0C2140"></path>
<path d="M954.787 573.549L957.341 573.099C956.203 572.121 954.236 571.253 954.787 573.549Z" fill="#0C2140"></path>
<path d="M667.716 373.897C667.587 373.99 667.442 374.065 667.301 374.077C667.747 374.034 667.837 373.967 667.716 373.897Z" fill="black"></path>
<path d="M960.826 572.486L962.794 572.137C962.352 571.934 961.624 572.134 960.826 572.486Z" fill="#0C2140"></path>
<path d="M669.316 53.0637C669.371 54.4561 667.372 54.4131 666.042 54.8395C665.992 53.447 667.986 53.4861 669.316 53.0637ZM670.822 27.6678C670.877 29.0642 668.882 29.0251 667.548 29.4436C667.497 28.0512 669.492 28.0942 670.822 27.6678ZM796.882 68.0126C791.246 77.6578 754.331 102.127 684.402 114.459C681.985 114.885 679.673 115.222 677.319 115.593C677.686 116.078 678.003 116.638 678.253 117.291C677.064 116.649 675.363 116.739 674.178 116.098C673.243 116.239 672.277 116.411 671.354 116.544C670.72 117.447 669.969 118.225 670.685 116.63C608.864 125.391 570.838 115.941 562.82 109.284C568.456 99.6352 605.371 75.1663 675.3 62.838C745.222 50.5058 788.285 60.8745 796.882 68.0126ZM686.451 41.6663C686.506 43.0587 684.507 43.0196 683.178 43.442C683.127 42.0457 685.125 42.0926 686.451 41.6663ZM718.195 38.463C724.934 30.4292 709.81 40.7041 718.195 38.463ZM721.672 37.8489C718.997 41.5763 721.934 40.399 717.644 42.1513C716.142 42.5581 719.302 35.0328 721.672 37.8489ZM723.245 39.9688C723.554 39.8202 724.136 39.961 724.406 39.7654C726.014 38.5647 725.396 40.3365 724.61 40.9231C723.186 41.9753 721.876 40.6024 723.245 39.9688ZM731.642 26.5218C739.136 28.4266 737.505 34.7864 732.733 39.4916C732.026 43.0783 731.165 37.931 733.688 38.1266C732.604 37.2505 731.979 35.7251 731.709 33.6873C732.984 32.025 733.453 32.909 735.19 33.0732C735.006 29.4631 730.625 31.8451 729.734 29.2519C729.796 27.9377 731.896 28.0551 731.642 26.5218ZM741.334 27.2063C742.426 29.6626 739.406 29.248 739.625 31.098C737.615 31.8021 738.761 26.6079 741.334 27.2063ZM795.865 58.2696C795.095 58.4065 794.32 58.5395 793.546 58.6764C793.581 57.6516 792.901 57.6595 792.185 57.7221C791.324 55.5513 797.168 55.0937 795.865 58.2696ZM738.796 107.818C736.872 111.811 731.126 107.782 738.796 107.818ZM718.935 117.299C717.01 121.292 711.268 117.267 718.935 117.299ZM707.126 118.186C703.626 116.864 702.222 118.214 707.126 118.186ZM700.505 114.568C695.123 119.532 688.978 113.039 700.505 114.568ZM696.742 147.533C696.777 146.023 698.846 145.956 699.065 147.122C698.85 148.902 698.025 147.188 696.742 147.533ZM682.963 123.639C682.908 122.246 684.903 122.293 686.236 121.871C686.291 123.259 684.292 123.22 682.963 123.639ZM688.419 127.468C688.223 127.409 685.067 127.656 685.892 126.717C686.897 125.575 692.017 128.532 688.419 127.468ZM657.637 149.645C655.713 153.638 649.967 149.617 657.637 149.645ZM630.677 125.68C630.622 124.288 632.617 124.335 633.954 123.909C634.001 125.301 632.007 125.258 630.677 125.68ZM614.77 144.04C615.747 144.099 616.131 145.002 617.296 144.795C617.159 147.638 611.93 146.469 614.77 144.04ZM612.587 138.443C612.802 136.667 613.627 138.384 614.906 138.036C614.875 139.55 612.806 139.612 612.587 138.443ZM607.737 138.103C612.262 140.398 602.265 141.963 607.737 138.103ZM580.64 140.488C580.589 139.096 582.584 139.135 583.917 138.713C583.968 140.105 581.974 140.066 580.64 140.488ZM585.76 149.156C585.525 150.791 577.573 151.878 584.602 149.359C584.492 149.398 586.006 147.439 585.76 149.156ZM571.632 150.454C571.241 149.508 571.886 149.281 572.587 149.085C572.356 147.963 571.006 148.436 570.06 148.338C566.098 145.542 575.461 149.293 574.495 146.359C577.808 146.84 574.789 151.162 571.632 150.454ZM563.035 142.397C562.832 142.342 559.675 142.589 560.505 141.642C561.506 140.504 566.626 143.465 563.035 142.397ZM572.461 53.3884C574.276 52.7313 574.652 54.1315 576.146 53.9399C577.002 56.1067 571.159 56.5643 572.461 53.3884ZM576.901 51.4132C584.477 50.7013 579.756 57.4483 576.901 51.4132ZM598.123 63.2252C597.353 63.3621 596.582 63.499 595.804 63.6359C595.843 62.6111 595.158 62.6151 594.439 62.6776C593.582 60.5069 599.426 60.0493 598.123 63.2252ZM598.945 47.5215C597.427 47.2711 596.301 46.4576 596.015 44.4511C598.393 43.4694 598.51 45.7223 598.945 47.5215ZM605.566 51.1433C605.351 52.919 604.53 51.2059 603.243 51.554C603.274 50.0442 605.347 49.9738 605.566 51.1433ZM611.574 51.2802C614.969 47.7874 609.454 55.6686 611.574 51.2802ZM623.312 63.5655C623.363 64.9618 621.368 64.9188 620.038 65.3451C619.983 63.9527 621.974 63.9918 623.312 63.5655ZM622.494 38.5881C627.059 39.6598 620.105 40.7941 622.154 43.4303C620.965 42.7106 619.314 42.6441 617.308 43.09C617.015 38.4082 622.549 43.6102 622.494 38.5881ZM631.502 69.2994C630.321 67.6019 625.87 70.5667 626.245 66.6398C628.549 66.7414 631.318 66.1821 631.502 69.2994ZM628.502 38.725C629.531 38.7641 629.519 38.0757 629.46 37.36C632.933 37.4187 628.001 39.4838 628.913 41.0444C627.556 41.0561 628.064 39.9962 628.705 39.8827C628.745 38.8619 628.064 38.8658 627.344 38.9284C627.333 37.5712 628.396 38.0757 628.502 38.725ZM635.053 55.5161C635.104 56.9085 633.113 56.8655 631.776 57.2918C631.721 55.8994 633.716 55.9346 635.053 55.5161ZM638.746 35.7212C638.527 37.4969 637.701 35.7837 636.418 36.1318C636.45 34.6182 638.523 34.5556 638.746 35.7212ZM640.169 64.1835C644.839 66.7062 640.412 66.2799 637.85 64.5902C633.986 63.6985 644.194 62.705 640.169 64.1835ZM643.517 49.2346C641.378 53.5409 637.404 46.9895 643.517 49.2346ZM810.677 47.279C810.65 48.7926 808.577 48.8591 808.358 47.6857C808.577 45.9139 809.402 47.6271 810.677 47.279ZM815.187 52.4692C818.582 48.9804 813.063 56.8538 815.187 52.4692ZM531.843 101.231C529.918 105.228 524.173 101.208 531.843 101.231ZM528.839 111.338C528.205 111.475 527.204 111.193 527.474 110.376C528.827 106.28 532.398 110.54 528.839 111.338ZM661.337 28.1489C661.423 31.4148 657.801 29.0172 656.698 28.9664C655.854 28.9312 655.412 30.2649 655.736 30.3314C653.855 29.9677 655.638 29.2871 655.533 29.1737C654.68 28.2311 652.838 27.8126 651.735 26.8621C555.647 47.0951 517.555 85.6642 522.96 116.309C528.667 148.675 582.94 172.78 691.317 153.669C799.694 134.559 842.452 93.3459 836.746 60.9801C834.325 47.2751 823.158 35.0641 802.894 26.9756C801.869 28.1568 799.202 28.192 799.284 30.1476C797.359 29.9755 798.83 27.3002 801.083 26.2481C788.579 21.5389 772.765 18.359 753.573 17.2717C753.072 18.0109 751.926 17.9562 751.609 17.1817C728.65 16.0631 700.986 17.878 668.389 23.6275C663.465 24.4958 658.724 25.4228 654.07 26.381C655.372 28.5714 658.885 27.6053 661.337 28.1489Z" fill="#0C2140"></path>
<path d="M14.9058 828.429H34.0749V711.869H14.9058V686.051H138.877V734.105H111.276V711.611H62.9596V759.669H112.551V784.463H62.9596V828.429H85.203V854.247H14.9058V828.429Z" fill="#0C2140"></path>
<path d="M254.166 737.941C254.166 720.305 239.596 711.868 216.336 711.868H200.742V765.805C203.808 766.059 207.899 766.313 217.099 766.313C238.83 766.313 254.166 755.577 254.166 737.941ZM152.688 828.428H171.857V711.868H152.688V686.05H217.869C256.465 686.05 284.071 702.665 284.071 736.92C284.071 758.643 270.781 775.262 252.378 782.674L278.196 828.428H297.366V854.246H258.511L224.769 790.34C221.19 790.598 217.869 790.852 214.544 790.852C209.178 790.852 204.32 790.852 200.742 790.598V828.428H221.702V854.246H152.688V828.428Z" fill="#0C2140"></path>
<path d="M450.997 770.148C450.997 735.13 427.225 709.824 394.761 709.824C362.043 709.824 338.271 734.872 338.271 770.148C338.271 805.169 362.043 830.475 394.761 830.475C427.225 830.475 450.997 805.424 450.997 770.148ZM308.361 770.148C308.361 720.815 344.149 682.985 395.273 682.985C446.139 682.985 480.903 721.069 480.903 770.148C480.903 819.481 445.119 857.314 393.994 857.314C343.128 857.314 308.361 819.226 308.361 770.148Z" fill="#0C2140"></path>
<path d="M544.302 738.197V828.43H565.259V854.244H497.011V828.43H516.184V711.87H497.011V686.052H540.724L623.541 791.621V711.87H602.58V686.052H670.061V711.87H651.659V854.502L636.069 855.015L544.302 738.197Z" fill="#0C2140"></path>
<path d="M715.829 828.429H736.786V711.099H705.605V737.684H678.254V686.051H824.211V737.684H796.859V711.099H765.671V828.429H786.635V854.247H715.829V828.429Z" fill="#0C2140"></path>
<path d="M834.435 828.429H854.887V711.869H834.435V686.051H904.22V711.869H883.768V828.429H904.22V854.247H834.435V828.429Z" fill="#0C2140"></path>
<path d="M918.023 828.429H937.193V711.869H918.023V686.051H1043.53V734.105H1015.92V711.611H966.077V756.603H1016.95V781.142H966.077V828.683H1016.18V806.19H1043.79V854.247H918.023V828.429Z" fill="#0C2140"></path>
<path d="M1161.89 737.941C1161.89 720.305 1147.32 711.868 1124.06 711.868H1108.46V765.805C1111.53 766.059 1115.62 766.313 1124.82 766.313C1146.55 766.313 1161.89 755.577 1161.89 737.941ZM1060.41 828.428H1079.58V711.868H1060.41V686.05H1125.59C1164.19 686.05 1191.79 702.665 1191.79 736.92C1191.79 758.643 1178.5 775.262 1160.1 782.674L1185.92 828.428H1205.09V854.246H1166.23L1132.49 790.34C1128.91 790.598 1125.59 790.852 1122.26 790.852C1116.9 790.852 1112.04 790.852 1108.46 790.598V828.428H1129.42V854.246H1060.41V828.428Z" fill="#0C2140"></path>
<path d="M241.382 978.283L217.863 912.081L194.349 978.283H241.382ZM132.746 1029.67H147.316L189.237 912.848H170.83V887.288H265.917V912.848H247.514L289.435 1029.67H304.009V1055.48H239.336V1029.92H258.759L249.302 1002.31H186.424L176.963 1029.92H197.415V1055.48H132.746V1029.67Z" fill="#0C2140"></path>
<path d="M358.972 939.432V1029.67H379.928V1055.48H311.68V1029.67H330.853V913.105H311.68V887.287H355.393L438.21 992.856V913.105H417.249V887.287H484.731V913.105H466.328V1055.74L450.738 1056.25L358.972 939.432Z" fill="#0C2140"></path>
<path d="M498.8 971.894C498.8 920.007 538.163 884.219 587.241 884.219C626.35 884.219 652.423 904.671 652.423 924.864C652.423 937.13 644.502 945.567 634.02 945.567C622.521 945.567 614.593 938.409 614.593 927.418C614.593 924.094 615.363 920.773 616.38 918.728C611.526 914.895 601.815 911.058 586.478 911.058C553.761 911.058 528.705 935.343 528.705 971.639C528.705 1008.7 555.548 1032.48 583.921 1032.48C601.556 1032.48 613.826 1028.64 624.563 1021.74V992.854H582.645V968.315H652.935V1055.48H625.333V1042.96C613.572 1052.16 598.49 1058.55 579.575 1058.55C538.163 1058.55 498.8 1025.83 498.8 971.894Z" fill="#0C2140"></path>
<path d="M676.972 1029.66H696.142V913.105H676.972V887.287H802.481V935.341H774.871V912.847H725.026V957.838H775.896V982.374H725.026V1029.92H775.13V1007.42H802.735V1055.48H676.972V1029.66Z" fill="#0C2140"></path>
<path d="M819.355 1029.66H838.525V913.105H819.355V887.287H889.653V913.105H867.409V1029.92H913.676V1006.15H941.54V1055.48H819.355V1029.66Z" fill="#0C2140"></path>
<path d="M953.813 1019.44C953.813 1007.42 960.971 999.5 971.449 999.5C982.698 999.5 989.856 1007.94 989.856 1016.11C989.856 1020.21 989.089 1023.27 987.556 1026.34C993.689 1030.68 1003.15 1033.5 1014.14 1033.5C1032.54 1033.5 1044.3 1025.32 1044.3 1010.74C1044.3 996.946 1030.24 990.301 1013.37 984.418C982.186 973.173 960.204 963.203 960.204 932.019C960.204 905.18 981.927 884.219 1015.93 884.219C1047.37 884.219 1071.65 900.322 1071.65 920.516C1071.65 932.531 1064.24 939.431 1054.52 939.431C1042.77 939.431 1036.12 930.74 1036.12 922.307C1036.12 918.216 1036.88 916.428 1037.91 914.383C1033.31 911.571 1026.15 909.271 1015.67 909.271C999.055 909.271 989.343 917.704 989.343 929.973C989.343 943.776 1003.4 949.913 1020.27 956.046C1050.43 966.782 1073.19 977.264 1073.19 1008.44C1073.19 1040.4 1048.39 1058.55 1013.88 1058.55C980.652 1058.55 953.813 1039.89 953.813 1019.44Z" fill="#0C2140"></path>
</svg>