<svg id="texture" xmlns="http://www.w3.org/2000/svg" viewBox="0 0 304.29 96.02"><defs></defs><title>FA_logo_type_only</title><path class="cls-1" d="M3.81,47h4.9V17.2H3.81V10.6h31.7V22.88H28.45V17.13H16.1V29.42H28.78v6.34H16.1V47h5.69v6.6h-18Z" transform="translate(-3.81 -9.81)"></path><path class="cls-1" d="M39,47h4.9V17.2H39V10.6H55.7c9.87,0,16.93,4.25,16.93,13a12.46,12.46,0,0,1-8.1,11.7L71.13,47H76v6.6H66.09L57.47,37.26c-.92.07-1.76.13-2.61.13-1.37,0-2.61,0-3.53-.07V47h5.36v6.6H39ZM65,23.86c0-4.51-3.72-6.67-9.67-6.67h-4V31c.78.07,1.83.13,4.18.13C61.06,31.12,65,28.37,65,23.86Z" transform="translate(-3.81 -9.81)"></path><path class="cls-1" d="M78.84,32.1c0-12.61,9.15-22.29,22.22-22.29S123,19.55,123,32.1s-9.15,22.29-22.22,22.29S78.84,44.65,78.84,32.1Zm36.47,0c0-9-6.08-15.42-14.38-15.42S86.49,23.08,86.49,32.1s6.08,15.42,14.44,15.42S115.31,41.12,115.31,32.1Z" transform="translate(-3.81 -9.81)"></path><path class="cls-1" d="M139.16,23.93V47h5.36v6.6H127.07V47H132V17.2h-4.9V10.6h11.18l21.17,27V17.2h-5.36V10.6h17.25v6.6h-4.71V53.67l-4,.13Z" transform="translate(-3.81 -9.81)"></path><path class="cls-1" d="M183,47h5.36V17h-8v6.8h-7V10.6h37.32V23.8h-7V17h-8V47h5.36v6.6H183Z" transform="translate(-3.81 -9.81)"></path><path class="cls-1" d="M213.34,47h5.23V17.2h-5.23V10.6h17.84v6.6H226V47h5.23v6.6H213.34Z" transform="translate(-3.81 -9.81)"></path><path class="cls-1" d="M234.71,47h4.9V17.2h-4.9V10.6H266.8V22.88h-7.06V17.13H247v11.5h13v6.27H247V47.07h12.81V41.31h7.06V53.6H234.71Z" transform="translate(-3.81 -9.81)"></path><path class="cls-1" d="M271.12,47H276V17.2h-4.9V10.6h16.67c9.87,0,16.93,4.25,16.93,13a12.46,12.46,0,0,1-8.1,11.7L303.2,47h4.9v6.6h-9.93l-8.63-16.34c-.92.07-1.76.13-2.61.13-1.37,0-2.61,0-3.53-.07V47h5.36v6.6H271.12Zm25.95-23.14c0-4.51-3.72-6.67-9.67-6.67h-4V31c.78.07,1.83.13,4.18.13C293.14,31.12,297.06,28.37,297.06,23.86Z" transform="translate(-3.81 -9.81)"></path><path class="cls-1" d="M33.94,98.45h3.73L48.38,68.58H43.68V62H68v6.54H63.28L74,98.45h3.73v6.6H61.19V98.52h5l-2.42-7.06H47.66l-2.42,7.06h5.23v6.54H33.94ZM61.71,85.31l-6-16.93-6,16.93Z" transform="translate(-3.81 -9.81)"></path><path class="cls-1" d="M91.78,75.38V98.45h5.36v6.6H79.69v-6.6h4.9V68.65h-4.9V62H90.86L112,89V68.65h-5.36V62h17.25v6.6h-4.71v36.47l-4,.13Z" transform="translate(-3.81 -9.81)"></path><path class="cls-1" d="M127.53,83.68c0-13.27,10.06-22.42,22.61-22.42,10,0,16.67,5.23,16.67,10.39,0,3.14-2,5.29-4.71,5.29-2.94,0-5-1.83-5-4.64a5.36,5.36,0,0,1,.46-2.22c-1.24-1-3.72-2-7.65-2-8.37,0-14.77,6.21-14.77,15.49,0,9.48,6.86,15.55,14.12,15.55a18.13,18.13,0,0,0,10.39-2.75V89H149V82.76h18v22.29h-7.06v-3.2a18.54,18.54,0,0,1-11.7,4C137.59,105.83,127.53,97.47,127.53,83.68Z" transform="translate(-3.81 -9.81)"></path><path class="cls-1" d="M173.08,98.45H178V68.65h-4.9V62h32.09V74.33h-7.06V68.58H185.37v11.5h13v6.27h-13V98.52h12.81V92.76h7.06v12.29H173.08Z" transform="translate(-3.81 -9.81)"></path><path class="cls-1" d="M209.49,98.45h4.9V68.65h-4.9V62h18v6.6h-5.69V98.52H233.6V92.44h7.12v12.61H209.49Z" transform="translate(-3.81 -9.81)"></path><path class="cls-1" d="M243.86,95.84c0-3.07,1.83-5.1,4.51-5.1A4.48,4.48,0,0,1,253.08,95a5.52,5.52,0,0,1-.59,2.61,12,12,0,0,0,6.8,1.83c4.71,0,7.71-2.09,7.71-5.82,0-3.53-3.59-5.23-7.91-6.73-8-2.87-13.59-5.42-13.59-13.4,0-6.86,5.55-12.22,14.25-12.22,8,0,14.25,4.12,14.25,9.28,0,3.07-1.9,4.84-4.38,4.84A4.46,4.46,0,0,1,264.91,71a3.85,3.85,0,0,1,.46-2,10.83,10.83,0,0,0-5.69-1.31c-4.25,0-6.73,2.16-6.73,5.29,0,3.53,3.59,5.1,7.91,6.67,7.71,2.75,13.53,5.42,13.53,13.4,0,8.17-6.34,12.81-15.16,12.81C250.73,105.83,243.86,101.06,243.86,95.84Z" transform="translate(-3.81 -9.81)"></path></svg>